# xmcd
#
# Track frame offsets:
#	150
#	14171
#	29312
#	48026
#	63570
#	72125
#	79322
#	89972
#	102114
#	114178
#	127935
#	142704
#	154573
#	166514
#
# Disc length: 2397 seconds
#
# Revision: 1
# Processed by: cddbd v1.5.2PL0 Copyright (c) Steve Scherf et al.
# Submitted via: audiograbber 1.83.01
#
DISCID=a9095b0e
DTITLE=Punches Family - Satisfied
DYEAR=2010
DGENRE=Bluegrass
TTITLE0=Mississippi Sawyer
TTITLE1=Catfish John
TTITLE2=Take Me Back To Renfro Valley
TTITLE3=Wabash Cannonball
TTITLE4=You Won't Be Satisfied That Way
TTITLE5=Turn Your Radio On
TTITLE6=When My Time Comes To Go
TTITLE7=The Prisoner Song
TTITLE8=Pages Of Time
TTITLE9=Fireball Mail
TTITLE10=You Are My Sunshine
TTITLE11=Small Exception Of Me
TTITLE12=Ain't Talkin' Just Walkin'
TTITLE13=Flag Of America
EXTD=
EXTT0=
EXTT1=
EXTT2=
EXTT3=
EXTT4=
EXTT5=
EXTT6=
EXTT7=
EXTT8=
EXTT9=
EXTT10=
EXTT11=
EXTT12=
EXTT13=
PLAYORDER=
